# xmcd CD database file
#
# Track frame offsets:
#	150
#	27891
#	52036
#	89394
#	128854
#	156189
#	192391
#	227830
#	258216
#	308043
#
# Disc length: 4459 seconds
#
# Revision: 0
# Processed by: cddbd v1.5.2PL0 Copyright (c) Steve Scherf et al.
# Submitted via: CDex 1.70beta2
#
DISCID=8011690a
DTITLE=Earthworks - Stamping Ground Live
DYEAR=2005
DGENRE=Jazz
TTITLE0=Nerve
TTITLE1=Up North
TTITLE2=A Stone's Throw
TTITLE3=Pilgrim's Way
TTITLE4=Emotional Shirt
TTITLE5=It Needn't End in Tears
TTITLE6=All Heaven Broke Loose
TTITLE7=Candles Still Flicker in Romania's Dark
TTITLE8=Bridge of Inhibitation
TTITLE9=Hotel Splendour
EXTD=YEAR: 2005
EXTT0=
EXTT1=
EXTT2=
EXTT3=
EXTT4=
EXTT5=
EXTT6=
EXTT7=
EXTT8=
EXTT9=
PLAYORDER=
